<svg width="40" height="40" viewBox="0 0 40 40" fill="none" xmlns="http://www.w3.org/2000/svg">
<path fill-rule="evenodd" clip-rule="evenodd" d="M12.7462 7.28963C13.155 7.51546 14.0676 7.4104 14.4285 7.78294C14.6118 7.9721 14.3814 8.34767 14.7715 8.59832C15.4748 9.05192 15.5246 11.0621 16.2186 13.0384C16.596 14.1135 17.5594 15.2019 18.0145 15.9723C18.5203 17.5772 20.7386 20.0553 22.0293 20.7888C24.3715 22.1192 26.5841 19.9315 28.4641 19.2258C29.0832 22.4581 30.0447 22.1259 25.3109 27.0551C23.4197 29.0242 21.1612 30.4156 17.8964 31.491C16.7117 29.5542 15.8361 27.086 14.8676 25.065C13.9629 23.1781 12.7995 20.074 11.8137 18.6471L10.1214 18.7323C10.8226 20.8128 12.6748 25.0237 13.5521 27.0336L13.059 28.0668C12.3892 26.4493 11.8342 25.1877 11.1322 23.5313C10.2 21.3339 8.46379 16.5688 7.32301 14.7894L5.47968 16.3195C3.75881 18.0404 1.46864 19.6086 0 21.6687C1.4961 24.8869 3.02988 28.0778 4.71682 31.2382C5.8638 33.3879 5.79354 34.246 8.15639 34.9988C22.3249 39.5144 25.7343 30.7319 38.2915 33.4582C40.3074 24.4504 38.9421 23.1086 33.8907 17.8325C33.302 17.2176 32.4934 15.5482 32.4463 14.7472C32.4108 14.1367 37.9941 -1.19094 23.0199 0.0741807C17.9874 0.499933 17.6409 7.00561 12.7462 7.28963ZM37.2616 40C37.8374 39.5158 39.4678 37.51 40 36.6202C34.2463 30.8 20.9402 37.9653 12.5933 37.314C9.35128 37.0614 6.51844 36.4429 4.7031 34.1258C2.5362 38.2802 15.5357 38.9472 19.39 38.6056C26.4791 37.9768 31.817 36.1318 37.2616 40Z" fill="#CCE7DC"/>
</svg>
